<?xml version="1.0" encoding="UTF-8" standalone="no"?>
<svg
   xmlns:dc="http://purl.org/dc/elements/1.1/"
   xmlns:cc="http://creativecommons.org/ns#"
   xmlns:rdf="http://www.w3.org/1999/02/22-rdf-syntax-ns#"
   xmlns:svg="http://www.w3.org/2000/svg"
   xmlns="http://www.w3.org/2000/svg"
   viewBox="0 0 768 208.14267"
   height="208.14267"
   width="768"
   xml:space="preserve"
   id="svg2"
   version="1.1"><metadata
     id="metadata8"><rdf:RDF><cc:Work
         rdf:about=""><dc:format>image/svg+xml</dc:format><dc:type
           rdf:resource="http://purl.org/dc/dcmitype/StillImage" /></cc:Work></rdf:RDF></metadata><defs
     id="defs6"><clipPath
       id="clipPath18"
       clipPathUnits="userSpaceOnUse"><path
         id="path16"
         d="M 0,156.107 H 576 V 0 H 0 Z" /></clipPath></defs><g
     transform="matrix(1.3333333,0,0,-1.3333333,0,208.14267)"
     id="g10"><g
       id="g12"><g
         clip-path="url(#clipPath18)"
         id="g14"><g
           transform="translate(59.0933,107.9833)"
           id="g20"><path
             id="path22"
             style="fill:#8b6100;fill-opacity:1;fill-rule:nonzero;stroke:none"
             d="m 0,0 v -17.561 c 0,-2.097 -0.146,-3.662 -0.439,-4.693 -0.293,-1.172 -0.791,-2.162 -1.495,-2.971 -1.371,-1.605 -3.187,-2.408 -5.449,-2.408 -1.711,0 -3.31,0.446 -4.799,1.336 l 2.004,3.498 c 0.996,-0.668 1.928,-1.002 2.795,-1.002 1.219,0 2.063,0.463 2.531,1.389 0.493,0.926 0.739,2.543 0.739,4.851 V 0 Z" /></g><g
           transform="translate(87.7739,104.1337)"
           id="g24"><path
             id="path26"
             style="fill:#8b6100;fill-opacity:1;fill-rule:nonzero;stroke:none"
             d="m 0,0 h -10.881 v -6.521 h 10.565 v -3.85 h -10.565 v -9.07 H 0 v -3.85 H -14.977 V 3.85 L 0,3.85 Z" /></g><g
           transform="translate(100.3525,80.8426)"
           id="g28"><path
             id="path30"
             style="fill:#8b6100;fill-opacity:1;fill-rule:nonzero;stroke:none"
             d="M 0,0 V 28.986 L 19.793,8.279 v 18.862 h 4.096 V -1.652 L 4.096,19.002 V 0 Z" /></g><g
           transform="translate(137.9453,80.8426)"
           id="g32"><path
             id="path34"
             style="fill:#8b6100;fill-opacity:1;fill-rule:nonzero;stroke:none"
             d="M 0,0 V 28.986 L 19.793,8.279 v 18.862 h 4.096 V -1.652 L 4.096,19.002 V 0 Z" /></g><path
           id="path36"
           style="fill:#8b6100;fill-opacity:1;fill-rule:nonzero;stroke:none"
           d="m 179.633,80.843 h -4.096 v 27.141 h 4.096 z" /><g
           transform="translate(206.9077,104.1337)"
           id="g38"><path
             id="path40"
             style="fill:#8b6100;fill-opacity:1;fill-rule:nonzero;stroke:none"
             d="m 0,0 h -9.457 v -6.521 h 9.123 v -3.85 h -9.123 v -12.92 h -4.096 V 3.85 L 0,3.85 Z" /></g><g
           transform="translate(233.8306,104.1337)"
           id="g42"><path
             id="path44"
             style="fill:#8b6100;fill-opacity:1;fill-rule:nonzero;stroke:none"
             d="m 0,0 h -10.881 v -6.521 h 10.565 v -3.85 h -10.565 v -9.07 H 0 v -3.85 H -14.977 V 3.85 L 0,3.85 Z" /></g><g
           transform="translate(250.5049,95.5204)"
           id="g46"><path
             id="path48"
             style="fill:#8b6100;fill-opacity:1;fill-rule:nonzero;stroke:none"
             d="m 0,0 h 1.301 c 3.879,0 5.818,1.482 5.818,4.447 0,2.778 -1.887,4.166 -5.66,4.166 H 0 Z M 5.098,-3.111 13.5,-14.678 H 8.49 L 0.738,-3.568 H 0 v -11.11 h -4.096 v 27.141 h 4.799 c 3.586,0 6.176,-0.674 7.77,-2.022 1.757,-1.5 2.636,-3.48 2.636,-5.941 0,-1.922 -0.55,-3.574 -1.652,-4.957 C 8.355,-1.84 6.902,-2.725 5.098,-3.111" /></g><g
           transform="translate(303.3975,84.6922)"
           id="g50"><path
             id="path52"
             style="fill:#8b6100;fill-opacity:1;fill-rule:nonzero;stroke:none"
             d="M 0,0 H 2.531 C 4.383,0 5.742,0.363 6.609,1.09 7.523,1.875 7.98,2.871 7.98,4.078 7.98,5.25 7.541,6.234 6.662,7.031 5.807,7.816 4.277,8.209 2.074,8.209 H 0 Z m 0,11.637 h 1.283 c 1.524,0 2.64,0.337 3.349,1.01 0.709,0.674 1.063,1.667 1.063,2.98 0,1.277 -0.363,2.247 -1.09,2.909 -0.726,0.662 -1.781,0.993 -3.164,0.993 H 0 Z M -4.096,-3.85 v 27.141 h 4.078 c 1.817,0 3.264,-0.141 4.342,-0.422 1.09,-0.281 2.01,-0.756 2.76,-1.424 0.762,-0.691 1.365,-1.552 1.811,-2.584 0.457,-1.043 0.685,-2.097 0.685,-3.164 0,-1.945 -0.744,-3.592 -2.232,-4.939 1.441,-0.492 2.578,-1.354 3.41,-2.584 0.844,-1.219 1.265,-2.637 1.265,-4.254 0,-2.121 -0.75,-3.914 -2.25,-5.379 C 8.871,-2.361 7.857,-2.988 6.732,-3.34 5.502,-3.68 3.961,-3.85 2.109,-3.85 Z" /></g><g
           transform="translate(331.8848,95.5204)"
           id="g54"><path
             id="path56"
             style="fill:#8b6100;fill-opacity:1;fill-rule:nonzero;stroke:none"
             d="m 0,0 h 1.301 c 3.879,0 5.818,1.482 5.818,4.447 0,2.778 -1.887,4.166 -5.66,4.166 H 0 Z M 5.098,-3.111 13.5,-14.678 H 8.49 L 0.738,-3.568 H 0 v -11.11 h -4.096 v 27.141 h 4.799 c 3.586,0 6.176,-0.674 7.77,-2.022 1.757,-1.5 2.636,-3.48 2.636,-5.941 0,-1.922 -0.55,-3.574 -1.652,-4.957 C 8.355,-1.84 6.902,-2.725 5.098,-3.111" /></g><g
           transform="translate(358.8252,94.4833)"
           id="g58"><path
             id="path60"
             style="fill:#8b6100;fill-opacity:1;fill-rule:nonzero;stroke:none"
             d="m 0,0 c 0,-3 1.008,-5.467 3.023,-7.4 2.004,-1.934 4.319,-2.901 6.944,-2.901 2.847,0 5.25,0.985 7.207,2.953 1.957,1.993 2.935,4.418 2.935,7.278 0,2.894 -0.966,5.32 -2.9,7.277 C 15.287,9.176 12.908,10.16 10.072,10.16 7.248,10.16 4.863,9.176 2.918,7.207 0.973,5.262 0,2.859 0,0 m -4.131,0.053 c 0,3.82 1.401,7.101 4.201,9.843 2.789,2.743 6.141,4.114 10.055,4.114 3.867,0 7.184,-1.383 9.949,-4.149 2.778,-2.765 4.166,-6.088 4.166,-9.966 0,-3.903 -1.394,-7.213 -4.183,-9.932 -2.801,-2.731 -6.182,-4.096 -10.143,-4.096 -3.504,0 -6.65,1.213 -9.439,3.639 -3.071,2.683 -4.606,6.199 -4.606,10.547" /></g><g
           transform="translate(398.1934,94.4833)"
           id="g62"><path
             id="path64"
             style="fill:#8b6100;fill-opacity:1;fill-rule:nonzero;stroke:none"
             d="m 0,0 c 0,-3 1.008,-5.467 3.023,-7.4 2.004,-1.934 4.319,-2.901 6.944,-2.901 2.847,0 5.25,0.985 7.207,2.953 1.957,1.993 2.935,4.418 2.935,7.278 0,2.894 -0.966,5.32 -2.9,7.277 C 15.287,9.176 12.908,10.16 10.072,10.16 7.248,10.16 4.863,9.176 2.918,7.207 0.973,5.262 0,2.859 0,0 m -4.131,0.053 c 0,3.82 1.401,7.101 4.201,9.843 2.789,2.743 6.141,4.114 10.055,4.114 3.867,0 7.184,-1.383 9.949,-4.149 2.778,-2.765 4.166,-6.088 4.166,-9.966 0,-3.903 -1.394,-7.213 -4.183,-9.932 -2.801,-2.731 -6.182,-4.096 -10.143,-4.096 -3.504,0 -6.65,1.213 -9.439,3.639 -3.071,2.683 -4.606,6.199 -4.606,10.547" /></g><g
           transform="translate(438.8799,97.1551)"
           id="g66"><path
             id="path68"
             style="fill:#8b6100;fill-opacity:1;fill-rule:nonzero;stroke:none"
             d="m 0,0 10.564,10.828 h 5.467 L 3.762,-1.459 16.102,-16.312 H 10.617 L 0.844,-4.236 0,-5.08 v -11.232 h -4.096 v 27.14 H 0 Z" /></g><g
           transform="translate(480.8135,104.1337)"
           id="g70"><path
             id="path72"
             style="fill:#8b6100;fill-opacity:1;fill-rule:nonzero;stroke:none"
             d="m 0,0 h -10.881 v -6.521 h 10.565 v -3.85 h -10.565 v -9.07 H 0 v -3.85 H -14.977 V 3.85 L 0,3.85 Z" /></g><g
           transform="translate(508.7383,103.9403)"
           id="g74"><path
             id="path76"
             style="fill:#8b6100;fill-opacity:1;fill-rule:nonzero;stroke:none"
             d="m 0,0 -3.322,-1.969 c -0.621,1.078 -1.213,1.782 -1.776,2.11 -0.586,0.375 -1.341,0.562 -2.267,0.562 -1.137,0 -2.08,-0.322 -2.83,-0.967 -0.75,-0.632 -1.125,-1.429 -1.125,-2.39 0,-1.325 0.984,-2.391 2.953,-3.2 l 2.707,-1.107 c 2.203,-0.891 3.814,-1.977 4.834,-3.261 1.019,-1.283 1.529,-2.856 1.529,-4.719 0,-2.496 -0.832,-4.559 -2.496,-6.188 -1.676,-1.641 -3.756,-2.461 -6.24,-2.461 -2.356,0 -4.301,0.697 -5.836,2.092 -1.512,1.394 -2.455,3.357 -2.83,5.889 l 4.148,0.914 c 0.188,-1.594 0.516,-2.696 0.985,-3.305 0.843,-1.172 2.074,-1.758 3.691,-1.758 1.277,0 2.338,0.428 3.182,1.283 0.843,0.856 1.265,1.94 1.265,3.252 0,0.528 -0.073,1.011 -0.219,1.451 -0.147,0.439 -0.375,0.843 -0.686,1.212 -0.311,0.37 -0.712,0.715 -1.204,1.038 -0.492,0.322 -1.078,0.629 -1.758,0.922 l -2.619,1.09 c -3.715,1.571 -5.572,3.867 -5.572,6.891 0,2.039 0.779,3.744 2.338,5.115 C -11.59,3.879 -9.65,4.57 -7.33,4.57 -4.201,4.57 -1.758,3.047 0,0" /></g><g
           transform="translate(213.7178,54.2323)"
           id="g78"><path
             id="path80"
             style="fill:#262222;fill-opacity:1;fill-rule:nonzero;stroke:none"
             d="m 0,0 h 0.667 c 0.664,0 1.216,0.07 1.656,0.21 0.44,0.147 0.838,0.383 1.194,0.704 0.728,0.665 1.091,1.53 1.091,2.597 0,1.074 -0.359,1.946 -1.079,2.615 C 2.882,6.723 1.928,7.021 0.667,7.021 H 0 Z M -1.479,-1.39 V 8.411 H 0.578 C 1.563,8.411 2.342,8.313 2.914,8.119 3.527,7.929 4.083,7.604 4.583,7.147 5.594,6.226 6.1,5.013 6.1,3.511 6.1,2.004 5.573,0.785 4.52,-0.146 3.991,-0.611 3.436,-0.935 2.856,-1.117 2.315,-1.299 1.547,-1.39 0.552,-1.39 Z" /></g><g
           transform="translate(229.686,61.2528)"
           id="g82"><path
             id="path84"
             style="fill:#262222;fill-opacity:1;fill-rule:nonzero;stroke:none"
             d="m 0,0 h -3.929 v -2.354 h 3.815 V -3.745 H -3.929 V -7.021 H 0 V -8.41 H -5.408 V 1.391 H 0 Z" /></g><g
           transform="translate(239.77,61.1835)"
           id="g86"><path
             id="path88"
             style="fill:#262222;fill-opacity:1;fill-rule:nonzero;stroke:none"
             d="m 0,0 -1.2,-0.711 c -0.224,0.389 -0.438,0.643 -0.641,0.762 -0.211,0.135 -0.484,0.203 -0.819,0.203 -0.41,0 -0.751,-0.116 -1.022,-0.35 -0.271,-0.228 -0.406,-0.515 -0.406,-0.863 0,-0.478 0.356,-0.863 1.067,-1.155 l 0.977,-0.4 c 0.795,-0.322 1.377,-0.714 1.746,-1.177 0.368,-0.463 0.552,-1.032 0.552,-1.705 0,-0.901 -0.3,-1.646 -0.901,-2.234 -0.605,-0.593 -1.357,-0.889 -2.254,-0.889 -0.85,0 -1.553,0.252 -2.107,0.755 -0.546,0.504 -0.887,1.213 -1.022,2.127 l 1.498,0.33 c 0.068,-0.576 0.186,-0.973 0.355,-1.193 0.305,-0.424 0.749,-0.635 1.333,-0.635 0.462,0 0.844,0.155 1.149,0.463 0.305,0.31 0.457,0.7 0.457,1.175 0,0.19 -0.026,0.365 -0.079,0.523 -0.053,0.16 -0.136,0.305 -0.247,0.439 -0.113,0.133 -0.258,0.258 -0.436,0.374 -0.177,0.116 -0.389,0.227 -0.634,0.333 l -0.946,0.393 c -1.341,0.568 -2.012,1.397 -2.012,2.489 0,0.736 0.281,1.352 0.844,1.847 C -4.185,1.4 -3.485,1.65 -2.647,1.65 -1.517,1.65 -0.635,1.1 0,0" /></g><path
           id="path90"
           style="fill:#262222;fill-opacity:1;fill-rule:nonzero;stroke:none"
           d="m 245.886,52.843 h -1.479 v 9.801 h 1.479 z" /><g
           transform="translate(255.8813,57.9462)"
           id="g92"><path
             id="path94"
             style="fill:#262222;fill-opacity:1;fill-rule:nonzero;stroke:none"
             d="M 0,0 H 4.05 V -0.324 C 4.05,-1.061 3.963,-1.712 3.79,-2.279 3.62,-2.804 3.334,-3.295 2.933,-3.752 2.023,-4.775 0.865,-5.288 -0.54,-5.288 c -1.371,0 -2.545,0.495 -3.522,1.485 -0.978,0.995 -1.467,2.189 -1.467,3.58 0,1.422 0.497,2.628 1.492,3.619 0.995,0.995 2.204,1.492 3.631,1.492 0.766,0 1.481,-0.158 2.145,-0.47 C 2.374,4.104 2.998,3.597 3.612,2.895 L 2.558,1.885 C 1.754,2.956 0.774,3.491 -0.381,3.491 -1.417,3.491 -2.287,3.134 -2.99,2.418 -3.692,1.716 -4.043,0.836 -4.043,-0.223 c 0,-1.091 0.391,-1.991 1.174,-2.697 0.732,-0.656 1.525,-0.984 2.38,-0.984 0.728,0 1.382,0.246 1.962,0.736 0.579,0.495 0.903,1.088 0.971,1.777 l -2.444,0 z" /></g><g
           transform="translate(264.3911,52.8426)"
           id="g96"><path
             id="path98"
             style="fill:#262222;fill-opacity:1;fill-rule:nonzero;stroke:none"
             d="M 0,0 V 10.467 L 7.147,2.989 V 9.801 H 8.626 V -0.597 L 1.479,6.861 V 0 Z" /></g><g
           transform="translate(292.8311,61.1835)"
           id="g100"><path
             id="path102"
             style="fill:#262222;fill-opacity:1;fill-rule:nonzero;stroke:none"
             d="m 0,0 -1.199,-0.711 c -0.225,0.389 -0.439,0.643 -0.642,0.762 -0.211,0.135 -0.484,0.203 -0.818,0.203 -0.411,0 -0.751,-0.116 -1.023,-0.35 -0.271,-0.228 -0.406,-0.515 -0.406,-0.863 0,-0.478 0.356,-0.863 1.067,-1.155 l 0.977,-0.4 c 0.796,-0.322 1.378,-0.714 1.746,-1.177 0.368,-0.463 0.552,-1.032 0.552,-1.705 0,-0.901 -0.3,-1.646 -0.901,-2.234 -0.605,-0.593 -1.357,-0.889 -2.253,-0.889 -0.851,0 -1.554,0.252 -2.108,0.755 -0.546,0.504 -0.887,1.213 -1.022,2.127 l 1.498,0.33 c 0.068,-0.576 0.186,-0.973 0.355,-1.193 0.305,-0.424 0.749,-0.635 1.333,-0.635 0.462,0 0.845,0.155 1.15,0.463 0.304,0.31 0.457,0.7 0.457,1.175 0,0.19 -0.027,0.365 -0.08,0.523 -0.053,0.16 -0.135,0.305 -0.247,0.439 -0.113,0.133 -0.257,0.258 -0.435,0.374 -0.178,0.116 -0.39,0.227 -0.635,0.333 l -0.946,0.393 c -1.341,0.568 -2.012,1.397 -2.012,2.489 0,0.736 0.281,1.352 0.844,1.847 C -4.185,1.4 -3.484,1.65 -2.646,1.65 -1.517,1.65 -0.635,1.1 0,0" /></g><g
           transform="translate(300.3574,61.2528)"
           id="g104"><path
             id="path106"
             style="fill:#262222;fill-opacity:1;fill-rule:nonzero;stroke:none"
             d="M 0,0 V -8.41 H -1.479 V 0 H -3.732 V 1.391 H 2.247 V 0 Z" /></g><g
           transform="translate(308.0039,62.6434)"
           id="g108"><path
             id="path110"
             style="fill:#262222;fill-opacity:1;fill-rule:nonzero;stroke:none"
             d="m 0,0 v -5.903 c 0,-0.843 0.138,-1.458 0.412,-1.848 0.411,-0.562 0.988,-0.844 1.734,-0.844 0.749,0 1.328,0.282 1.739,0.844 0.274,0.377 0.412,0.992 0.412,1.848 V 0 h 1.479 v -6.31 c 0,-1.033 -0.322,-1.883 -0.964,-2.551 -0.724,-0.745 -1.613,-1.118 -2.666,-1.118 -1.054,0 -1.941,0.373 -2.661,1.118 -0.642,0.668 -0.964,1.518 -0.964,2.551 l 0,6.31 z" /></g><g
           transform="translate(320.208,54.2323)"
           id="g112"><path
             id="path114"
             style="fill:#262222;fill-opacity:1;fill-rule:nonzero;stroke:none"
             d="m 0,0 h 0.666 c 0.665,0 1.217,0.07 1.657,0.21 0.44,0.147 0.838,0.383 1.194,0.704 0.727,0.665 1.091,1.53 1.091,2.597 0,1.074 -0.36,1.946 -1.079,2.615 C 2.882,6.723 1.928,7.021 0.666,7.021 H 0 Z M -1.479,-1.39 V 8.411 H 0.577 C 1.563,8.411 2.342,8.313 2.913,8.119 3.527,7.929 4.083,7.604 4.583,7.147 5.594,6.226 6.1,5.013 6.1,3.511 6.1,2.004 5.573,0.785 4.52,-0.146 3.99,-0.611 3.436,-0.935 2.856,-1.117 2.314,-1.299 1.547,-1.39 0.552,-1.39 Z" /></g><path
           id="path116"
           style="fill:#262222;fill-opacity:1;fill-rule:nonzero;stroke:none"
           d="m 332.246,52.843 h -1.479 v 9.801 h 1.479 z" /><g
           transform="translate(338.2041,57.7684)"
           id="g118"><path
             id="path120"
             style="fill:#262222;fill-opacity:1;fill-rule:nonzero;stroke:none"
             d="M 0,0 C 0,-1.084 0.364,-1.975 1.092,-2.673 1.815,-3.371 2.651,-3.72 3.6,-3.72 c 1.028,0 1.895,0.356 2.602,1.067 0.706,0.718 1.06,1.594 1.06,2.628 0,1.045 -0.349,1.921 -1.047,2.628 C 5.521,3.313 4.661,3.669 3.638,3.669 2.617,3.669 1.757,3.313 1.054,2.603 0.352,1.899 0,1.032 0,0 m -1.491,0.019 c 0,1.379 0.506,2.564 1.516,3.554 1.008,0.99 2.218,1.486 3.631,1.486 1.397,0 2.595,-0.499 3.593,-1.498 C 8.252,2.563 8.754,1.362 8.754,-0.038 8.754,-1.447 8.25,-2.643 7.243,-3.625 6.231,-4.61 5.011,-5.104 3.58,-5.104 c -1.265,0 -2.401,0.438 -3.408,1.314 -1.109,0.97 -1.663,2.239 -1.663,3.809" /></g><path
           id="path122"
           style="fill:#8b6100;fill-opacity:1;fill-rule:nonzero;stroke:none"
           d="m 279.353,121.57 h 2.299 V 51.852 h -2.299 z" /></g></g></g></svg>